<?xml version="1.0" encoding="UTF-8"?><svg id="Layer_1" xmlns="http://www.w3.org/2000/svg" viewBox="0 0 592.42 94.57"><defs><style>.cls-1{fill:#1e1e1c;}.cls-2{fill:#00983a;}</style></defs><polygon class="cls-2" points="82.5 .57 82.5 93.36 97.58 93.36 97.58 68.72 107.93 58.89 133.09 93.36 151.18 93.36 119.07 48.41 148.56 20.75 129.42 20.75 97.58 49.98 97.58 .57 82.5 .57"/><path class="cls-2" d="m18.65,43.64c5.09,0,9.21-5.36,9.21-11.97s-4.12-11.97-9.21-11.97-9.21,5.36-9.21,11.97,4.12,11.97,9.21,11.97Z"/><polygon class="cls-2" points="41.62 33.03 43.33 40.46 69.1 37.62 66.15 24.79 41.62 33.03"/><path class="cls-2" d="m53.25,64.17c0,9.88-7.54,17.67-18.26,17.67h0c-10.72,0-18.26-7.79-18.26-17.67l.03-5.2H1.67v3.64c0,17.65,13.75,31.96,33.31,31.97h0s.04,0,.04,0h0c19.56-.01,33.3-14.32,33.3-31.97v-3.64h-15.11l.03,5.2Z"/><path class="cls-1" d="m176.52,34.86c0-8.7,5.56-14.42,13.89-14.42,6.97,0,11.44,3.91,12.04,9.79h-4.71c-.52-3.5-3.3-5.76-7.33-5.76-5.48,0-9.14,4.15-9.14,10.39s3.71,10.39,9.22,10.39c4.67,0,7.73-3.06,7.93-7.33h-9.06v-3.74h13.45v14.78h-4.39v-3.58c-1.25,2.3-4.47,3.91-8.17,3.91-7.65,0-13.73-5.23-13.73-14.42Z"/><path class="cls-1" d="m213.35,48.79l-8.74-22.15h4.99l6.12,16.27,6.08-16.27h4.87l-11.64,29.64h-4.83l3.14-7.49Z"/><path class="cls-1" d="m263.3,34.22v14.74h-4.63v-13.65c0-2.94-1.69-4.87-4.39-4.87-3.54,0-5.76,3.3-5.76,8.82v9.7h-4.63v-13.65c0-2.94-1.65-4.87-4.35-4.87-3.54,0-5.76,3.26-5.76,8.82v9.7h-4.63v-22.31h4.63v3.34c1.13-1.97,3.79-3.66,6.97-3.66s5.88,1.61,6.97,4.55c1.77-3.02,4.79-4.55,7.81-4.55,4.51,0,7.77,3.14,7.77,7.89Z"/><path class="cls-1" d="m268.18,26.65h4.63v3.38c1.33-2.09,4.23-3.7,7.45-3.7,4.75,0,8.34,3.14,8.34,7.89v14.74h-4.63v-13.61c0-2.98-1.85-4.91-4.75-4.91-3.75,0-6.4,2.9-6.4,8.5v10.03h-4.63v-22.31Z"/><path class="cls-1" d="m292.27,37.8c0-6.97,4.39-11.48,10.71-11.48,3.14,0,6.04,1.45,7.45,3.54v-3.22h4.63v22.31h-4.63v-3.18c-1.41,2.05-4.27,3.5-7.41,3.5-6.36,0-10.75-4.51-10.75-11.48Zm11.44,7.49c3.95,0,6.72-3.02,6.72-7.49s-2.78-7.53-6.72-7.53-6.77,3.06-6.77,7.53,2.78,7.49,6.77,7.49Zm.6-26.86h4.99l-4.51,5.96h-3.14l2.66-5.96Z"/><path class="cls-1" d="m318.08,45.41l12.89-14.98h-12.08v-3.79h17.92v3.54l-12.89,14.98h13.05v3.79h-18.89v-3.54Z"/><path class="cls-1" d="m342.43,18.35c1.61,0,2.82,1.17,2.82,2.74s-1.21,2.7-2.82,2.7-2.82-1.13-2.82-2.7,1.21-2.74,2.82-2.74Zm-2.34,8.3h4.63v22.31h-4.63v-22.31Z"/><path class="cls-1" d="m349.39,40.82v-14.17h4.63v13.37c0,3.22,1.97,5.15,4.83,5.15,3.95,0,6.36-3.42,6.36-8.9v-9.62h4.63v22.31h-4.63v-3.66c-1.25,2.21-3.99,3.99-7.49,3.99-4.75,0-8.34-3.14-8.34-8.46Z"/><path class="cls-1" d="m408.97,34.22v14.74h-4.63v-13.65c0-2.94-1.69-4.87-4.39-4.87-3.54,0-5.76,3.3-5.76,8.82v9.7h-4.63v-13.65c0-2.94-1.65-4.87-4.35-4.87-3.54,0-5.76,3.26-5.76,8.82v9.7h-4.63v-22.31h4.63v3.34c1.13-1.97,3.79-3.66,6.97-3.66s5.88,1.61,6.97,4.55c1.77-3.02,4.79-4.55,7.81-4.55,4.51,0,7.77,3.14,7.77,7.89Z"/><path class="cls-1" d="m177.85,65.2h10.79c5.19,0,8.74,3.26,8.74,8.09,0,3.3-1.89,6.12-4.99,7.37l7.77,12.72h-5.52l-7.05-12h-4.99v12h-4.75v-28.19Zm9.99,12.12c2.94,0,4.83-1.65,4.83-4.03s-1.89-4.03-4.83-4.03h-5.23v8.05h5.23Z"/><path class="cls-1" d="m200.97,82.23c0-6.72,4.79-11.48,11.44-11.48s11.44,4.75,11.44,11.48-4.79,11.48-11.44,11.48-11.44-4.75-11.44-11.48Zm11.44,7.53c3.95,0,6.77-3.1,6.77-7.53s-2.82-7.53-6.77-7.53-6.76,3.1-6.76,7.53,2.78,7.53,6.76,7.53Z"/><path class="cls-1" d="m227.27,85.25v-14.17h4.63v13.37c0,3.22,1.97,5.15,4.83,5.15,3.95,0,6.36-3.42,6.36-8.9v-9.62h4.63v22.31h-4.63v-3.66c-1.25,2.21-3.99,3.99-7.49,3.99-4.75,0-8.34-3.14-8.34-8.46Z"/><path class="cls-1" d="m251.53,82.23c0-6.97,4.39-11.48,10.71-11.48,3.14,0,6.04,1.45,7.45,3.54v-9.42h4.63v28.51h-4.63v-3.18c-1.41,2.05-4.27,3.5-7.41,3.5-6.36,0-10.75-4.51-10.75-11.48Zm11.44,7.49c3.95,0,6.72-3.02,6.72-7.49s-2.78-7.53-6.72-7.53-6.76,3.06-6.76,7.53,2.78,7.49,6.76,7.49Z"/><path class="cls-1" d="m279.3,71.08h4.63v3.38c1.33-2.09,4.23-3.7,7.45-3.7,4.75,0,8.34,3.14,8.34,7.89v14.74h-4.63v-13.61c0-2.98-1.85-4.91-4.75-4.91-3.75,0-6.4,2.9-6.4,8.5v10.03h-4.63v-22.31Z"/><path class="cls-1" d="m306.84,62.78c1.61,0,2.82,1.17,2.82,2.74s-1.21,2.7-2.82,2.7-2.82-1.13-2.82-2.7,1.21-2.74,2.82-2.74Zm-2.34,8.3h4.63v22.31h-4.63v-22.31Z"/><path class="cls-1" d="m312.71,82.23c0-6.72,4.71-11.48,11.15-11.48,5.6,0,9.58,3.1,10.23,8.13h-4.67c-.52-2.5-2.7-4.19-5.56-4.19-3.71,0-6.48,3.06-6.48,7.53s2.82,7.53,6.48,7.53c3.06,0,5.36-1.81,5.72-4.23h4.71c-.52,4.67-4.51,8.17-10.43,8.17-6.44,0-11.15-4.79-11.15-11.48Z"/><path class="cls-1" d="m336.49,82.23c0-6.72,4.63-11.48,10.99-11.48,7.01,0,11.36,5.4,10.47,12.32h-16.87c.28,4.27,2.9,6.72,6.52,6.72,2.94,0,4.99-1.41,5.52-3.66h4.75c-.93,4.23-4.51,7.57-10.27,7.57-6.81,0-11.11-4.75-11.11-11.48Zm16.71-2.66c-.08-3.14-2.38-5.11-5.72-5.11s-5.48,1.81-6.2,5.11h11.92Z"/><path class="cls-1" d="m370.72,71.08h4.63v3.38c1.33-2.09,4.23-3.7,7.45-3.7,4.75,0,8.34,3.14,8.34,7.89v14.74h-4.63v-13.61c0-2.98-1.85-4.91-4.75-4.91-3.75,0-6.4,2.9-6.4,8.5v10.03h-4.63v-22.31Z"/><path class="cls-1" d="m394.81,82.23c0-6.97,4.39-11.48,10.71-11.48,3.14,0,6.04,1.45,7.45,3.54v-3.22h4.63v22.31h-4.63v-3.18c-1.41,2.05-4.27,3.5-7.41,3.5-6.36,0-10.75-4.51-10.75-11.48Zm11.44,7.49c3.95,0,6.72-3.02,6.72-7.49s-2.78-7.53-6.72-7.53-6.77,3.06-6.77,7.53,2.78,7.49,6.77,7.49Z"/><path class="cls-1" d="m421.44,82.23c0-6.97,4.39-11.48,10.71-11.48,3.14,0,6.04,1.45,7.45,3.54v-9.42h4.63v28.51h-4.63v-3.18c-1.41,2.05-4.27,3.5-7.41,3.5-6.36,0-10.75-4.51-10.75-11.48Zm11.44,7.49c3.95,0,6.72-3.02,6.72-7.49s-2.78-7.53-6.72-7.53-6.77,3.06-6.77,7.53,2.78,7.49,6.77,7.49Z"/><path class="cls-1" d="m458.32,65.2h4.75v24.12h13.65v4.07h-18.4v-28.19Z"/><path class="cls-1" d="m478.12,82.23c0-6.97,4.39-11.48,10.71-11.48,3.14,0,6.04,1.45,7.45,3.54v-3.22h4.63v22.31h-4.63v-3.18c-1.41,2.05-4.27,3.5-7.41,3.5-6.36,0-10.75-4.51-10.75-11.48Zm11.44,7.49c3.95,0,6.72-3.02,6.72-7.49s-2.78-7.53-6.72-7.53-6.77,3.06-6.77,7.53,2.78,7.49,6.77,7.49Z"/><path class="cls-1" d="m510.56,90.21v3.18h-4.63v-28.51h4.63v9.42c1.41-2.09,4.31-3.54,7.45-3.54,6.32,0,10.71,4.51,10.71,11.48s-4.39,11.48-10.75,11.48c-3.14,0-6-1.45-7.41-3.5Zm6.72-.48c3.99,0,6.77-3.02,6.77-7.49s-2.78-7.53-6.77-7.53-6.72,3.06-6.72,7.53,2.78,7.49,6.72,7.49Z"/><path class="cls-1" d="m531.34,82.23c0-6.72,4.63-11.48,10.99-11.48,7.01,0,11.36,5.4,10.47,12.32h-16.87c.28,4.27,2.9,6.72,6.52,6.72,2.94,0,4.99-1.41,5.52-3.66h4.75c-.93,4.23-4.51,7.57-10.27,7.57-6.81,0-11.11-4.75-11.11-11.48Zm16.71-2.66c-.08-3.14-2.38-5.11-5.72-5.11s-5.48,1.81-6.2,5.11h11.92Z"/><path class="cls-1" d="m590.75,78.65v14.74h-4.63v-13.65c0-2.94-1.69-4.87-4.39-4.87-3.54,0-5.76,3.3-5.76,8.82v9.7h-4.63v-13.65c0-2.94-1.65-4.87-4.35-4.87-3.54,0-5.76,3.26-5.76,8.82v9.7h-4.63v-22.31h4.63v3.34c1.13-1.97,3.79-3.66,6.97-3.66s5.88,1.61,6.97,4.55c1.77-3.02,4.79-4.55,7.81-4.55,4.51,0,7.77,3.14,7.77,7.89Z"/></svg>